<svg version="1.1" id="Layer_1" xmlns="http://www.w3.org/2000/svg" xmlns:xlink="http://www.w3.org/1999/xlink" x="0px" y="0px"
	 width="100%" viewBox="0 0 1024 1024" enable-background="new 0 0 1024 1024" xml:space="preserve">
<path fill="#000000" opacity="1.000000" stroke="none" 
	d="
M748.681030,768.721558 
	C711.428467,794.833435 674.463928,820.727905 637.519226,846.650696 
	C635.340332,848.179565 633.354431,849.980835 631.217224,851.572815 
	C629.759644,852.658508 628.215027,854.018311 626.243164,853.174500 
	C624.039978,852.231812 623.976990,850.006409 623.938965,848.033081 
	C623.858704,843.869141 623.990723,839.701538 623.989502,835.535461 
	C623.939148,666.211365 623.881775,496.887238 623.830139,327.563110 
	C623.814453,276.232758 623.810364,224.902435 623.814636,173.572098 
	C623.814819,171.614883 623.265747,169.169403 625.449646,168.197601 
	C627.502014,167.284286 629.209839,169.015854 630.783264,170.211029 
	C670.053406,200.041061 709.075623,230.191193 747.861328,260.649567 
	C775.500000,282.354187 803.072998,304.155426 831.181763,325.238342 
	C837.502319,329.979034 839.512085,334.645599 839.457275,342.137085 
	C839.121582,387.966827 839.179382,433.799835 839.262817,479.631500 
	C839.271423,484.388580 838.149414,486.582184 832.853943,486.481720 
	C821.104919,486.258881 812.755798,493.455627 804.448547,500.512054 
	C803.101990,501.655792 802.361084,503.613190 800.234680,503.766144 
	C798.292786,502.429230 798.984131,500.452057 799.037781,498.715271 
	C800.417908,454.065002 799.312927,409.404663 799.596619,364.750244 
	C799.627930,359.818237 797.791992,356.088409 793.610718,352.894775 
	C765.674133,331.557098 737.544678,310.481750 709.138367,289.774933 
	C707.931213,288.895020 706.634949,288.133759 705.356689,287.355865 
	C701.986572,285.305054 699.942017,286.919800 698.828064,290.034363 
	C698.287292,291.546478 698.301208,293.306854 698.300354,294.954926 
	C698.279541,334.953949 698.361450,374.953186 698.218201,414.951691 
	C698.197205,420.818359 700.103516,424.905548 704.867065,428.500214 
	C718.690552,438.931610 732.116699,449.888062 745.852112,460.438782 
	C750.328430,463.877258 752.280029,467.848145 752.271423,473.607086 
	C752.178467,535.603394 752.148621,597.600830 752.467468,659.596008 
	C752.547852,675.238403 751.745422,690.894958 752.874268,706.536804 
	C753.351746,713.152893 755.445679,714.568481 760.880249,710.875610 
	C771.763062,703.480652 782.417358,695.750366 793.230896,688.252136 
	C797.917603,685.002380 799.769043,680.610168 799.680664,675.018799 
	C799.456787,660.854553 799.316833,646.591370 801.515686,632.632751 
	C804.722717,612.273865 809.382263,592.147583 813.013306,571.848999 
	C813.984070,566.422180 816.123596,562.302856 820.264832,558.781677 
	C824.445862,555.226624 828.209167,551.182861 832.198425,547.398499 
	C833.617737,546.052063 834.855957,544.354553 837.104370,544.242798 
	C838.693848,545.044495 838.200378,546.530273 838.198425,547.765625 
	C838.137146,587.095276 838.269958,626.427307 837.834412,665.753113 
	C837.694275,678.405518 837.524719,691.066406 837.343384,703.722778 
	C837.305420,706.368896 836.821411,708.460022 834.245483,709.993042 
	C814.033020,722.022888 795.269653,736.190308 776.031738,749.658325 
	C767.026489,755.962708 757.993652,762.227539 748.681030,768.721558 
M706.946960,509.285645 
	C703.803894,508.954987 700.666626,508.421783 697.516663,508.331543 
	C688.038452,508.060181 685.007812,511.144226 685.021118,520.739441 
	C685.032837,529.231567 684.964905,537.724731 685.068298,546.215698 
	C685.568726,587.324280 684.280701,628.451355 686.276062,669.543213 
	C686.724365,678.774719 691.730347,682.673096 700.829346,681.249512 
	C702.638123,680.966553 704.460022,680.749451 706.253784,680.391235 
	C715.475403,678.549316 717.041626,676.684143 717.021240,667.352417 
	C716.915710,619.062439 716.693665,570.772278 716.774597,522.482666 
	C716.786194,515.565491 714.147705,511.436035 706.946960,509.285645 
z"/>
<path fill="#000000" opacity="1.000000" stroke="none" 
	d="
M479.606384,723.711426 
	C479.405609,690.597961 478.630585,657.939270 479.194122,625.303772 
	C479.596741,601.988831 478.961853,578.693054 479.201843,555.383240 
	C479.719635,505.096130 479.061890,454.797668 478.990540,404.503662 
	C478.911835,349.041351 478.957367,293.578857 478.936493,238.116455 
	C478.924805,206.964828 478.956573,175.812805 478.778046,144.662064 
	C478.755310,140.690536 479.924316,138.191147 483.329956,136.108353 
	C499.530823,126.200302 515.692444,116.222458 531.693176,105.995911 
	C537.028503,102.585907 541.248962,102.457146 546.472046,106.571533 
	C560.865356,117.909622 575.695557,128.691727 590.294678,139.770462 
	C595.176941,143.475433 594.909119,145.208191 589.498657,148.400314 
	C566.976196,161.688644 544.519409,175.089371 521.920959,188.246948 
	C517.663147,190.725952 515.786560,193.786774 515.883911,198.690140 
	C516.128540,211.016556 516.296021,223.354553 516.014282,235.676941 
	C515.880737,241.519318 518.169617,245.421936 522.728394,248.676224 
	C540.484619,261.351532 558.147156,274.157959 575.855469,286.900421 
	C587.211670,295.072083 598.565979,303.246582 609.972656,311.347290 
	C612.040955,312.816101 613.154236,314.445740 613.138733,317.111847 
	C613.023682,336.923370 613.029907,356.735596 612.975159,376.547516 
	C612.970215,378.335358 613.333923,380.263397 611.446045,381.808685 
	C607.940369,380.462402 605.029297,377.954437 601.963318,375.772827 
	C577.258972,358.194397 552.612976,340.533936 527.917175,322.943481 
	C526.101807,321.650391 524.260132,319.261444 521.775391,320.674957 
	C519.367493,322.044708 519.350952,324.964111 519.442078,327.429565 
	C520.698669,361.410492 519.961365,395.406372 520.218018,429.394104 
	C520.249512,433.569153 522.519592,435.662994 525.679504,437.569000 
	C544.079651,448.667664 562.289368,460.093597 580.899902,470.825531 
	C587.280945,474.505249 589.766602,478.612152 589.570862,486.136505 
	C589.120667,503.440582 588.840942,520.784424 589.880310,538.099487 
	C589.936829,539.041626 589.597717,540.007507 589.467224,540.811646 
	C587.354919,541.951294 586.023621,540.556580 584.639709,539.830750 
	C568.563721,531.399902 552.524780,522.898499 536.451355,514.462769 
	C533.951843,513.150940 531.407471,511.842773 528.745972,510.939056 
	C523.788635,509.255707 521.351440,510.918091 521.296143,516.165710 
	C521.161072,528.996399 521.222229,541.829163 521.223511,554.661133 
	C521.227356,592.824341 521.240356,630.987610 521.250488,669.150818 
	C521.250610,669.650757 521.256531,670.150696 521.263794,670.650574 
	C521.367737,677.768738 523.299622,678.926575 529.247681,675.289917 
	C534.789978,671.901367 540.282104,668.428589 545.751160,664.922485 
	C565.946289,651.975769 586.116028,638.989380 606.320435,626.057068 
	C607.782715,625.121155 609.276306,623.381348 611.228699,624.614380 
	C612.872498,625.652466 612.331665,627.632385 612.331970,629.239746 
	C612.337830,658.570374 612.249695,687.901184 612.352783,717.231384 
	C612.367310,721.355957 610.938599,723.950928 607.484375,726.228760 
	C578.705627,745.207214 550.066345,764.397095 521.282227,783.367371 
	C517.669800,785.748108 516.161865,788.404236 516.226990,792.764771 
	C516.446045,807.426331 516.388794,822.095032 516.196777,836.757812 
	C516.148865,840.415405 517.410400,842.453308 520.624329,844.211426 
	C542.252197,856.042419 563.774597,868.066467 585.324585,880.039795 
	C590.213684,882.756226 590.360291,883.943726 585.817078,887.321533 
	C570.715393,898.549255 555.525024,909.657593 540.420471,920.881470 
	C537.056213,923.381409 533.854187,923.569153 530.286804,921.357666 
	C514.569336,911.613647 498.848053,901.874390 483.031281,892.293335 
	C479.873688,890.380615 479.690033,887.760559 479.690521,884.635315 
	C479.697754,837.973022 479.648407,791.310669 479.613281,744.648376 
	C479.608154,737.824280 479.607513,731.000244 479.606384,723.711426 
z"/>
<path fill="#000000" opacity="1.000000" stroke="none" 
	d="
M402.159485,358.113892 
	C423.818512,344.212677 445.173218,330.509460 466.496216,316.826630 
	C469.009460,319.636078 468.252899,322.256592 468.258484,324.634399 
	C468.338257,358.625763 467.935059,392.624023 468.503326,426.606384 
	C468.890320,449.748413 468.653229,472.889282 469.147827,496.023621 
	C469.254242,501.001770 467.528687,504.587463 463.771423,507.687622 
	C454.521851,515.319641 445.418243,523.128662 436.260162,530.871521 
	C430.229218,535.970398 429.244659,539.608154 433.506775,546.534119 
	C440.923279,558.585999 448.850952,570.323425 456.568115,582.190186 
	C457.112976,583.028076 457.613678,583.910278 458.260712,584.663818 
	C467.551453,595.483826 470.282684,607.880676 469.642548,622.099731 
	C468.669312,643.718262 469.353058,665.411011 469.309479,687.072205 
	C469.303497,690.045837 469.576202,693.107239 467.479218,695.735229 
	C464.649536,696.024719 463.944946,693.605103 462.882629,691.902893 
	C442.427551,659.125854 422.258911,626.168030 400.962708,593.923523 
	C399.483185,591.683350 398.587891,588.714966 394.097595,587.662292 
	C394.506653,670.904419 396.532776,753.654236 396.364746,836.192749 
	C393.569214,837.545044 392.006653,835.901306 390.394562,834.915039 
	C356.871155,814.405212 323.368317,793.861755 289.872864,773.306396 
	C264.890778,757.975586 240.039398,742.426514 214.874252,727.402771 
	C208.235931,723.439514 205.512955,718.890564 205.489594,711.010193 
	C205.313873,651.705322 204.310028,592.403564 204.839386,533.095032 
	C204.858307,530.976746 204.402710,528.760010 205.716965,526.776489 
	C207.653915,525.938049 208.882721,527.284058 210.155045,528.242493 
	C224.254761,538.863464 238.271500,549.595886 252.455643,560.102600 
	C256.548584,563.134338 258.326508,566.496399 258.287781,571.820190 
	C258.078217,600.643860 258.268524,629.470947 258.406342,658.296387 
	C258.458893,669.287659 258.831329,680.277588 258.862335,691.268616 
	C258.872772,694.964844 260.046112,697.483093 263.347412,699.429504 
	C286.872650,713.299744 310.301819,727.332825 333.799866,741.249451 
	C340.269348,745.080933 341.798645,744.138245 341.725098,736.411255 
	C340.968689,656.946106 340.456421,577.480042 340.628784,498.010498 
	C340.697052,466.525391 340.737701,435.039825 340.616394,403.555145 
	C340.600250,399.361755 342.152863,396.767731 345.576874,394.580261 
	C364.383942,382.565338 383.104767,370.415436 402.159485,358.113892 
M389.432434,453.867828 
	C389.397461,462.688629 389.325714,471.509460 389.338531,480.330170 
	C389.349823,488.092285 391.883484,489.745972 398.685730,486.009460 
	C406.993225,481.446075 415.020599,476.374115 423.308990,471.774139 
	C428.773773,468.741272 430.845673,464.292053 430.705231,458.216949 
	C430.351471,442.917084 430.228516,427.611938 429.992371,412.309265 
	C429.902496,406.484924 427.485352,404.956055 422.495544,408.107391 
	C412.935638,414.145020 403.574066,420.498535 394.174713,426.787537 
	C390.564270,429.203217 388.749634,432.624329 389.384399,437.038635 
	C390.148834,442.354980 389.327423,447.660126 389.432434,453.867828 
z"/>
<path fill="#000000" opacity="1.000000" stroke="none" 
	d="
M246.287140,284.229187 
	C298.173767,251.681870 349.764008,219.345245 401.102295,187.166550 
	C404.070129,189.500397 403.342529,191.846115 403.345154,193.867859 
	C403.394653,232.019440 402.765350,270.186554 403.734314,308.313446 
	C404.030731,319.977814 400.520294,326.411713 390.627960,331.883820 
	C376.373718,339.768829 362.940948,349.136993 349.130859,357.829773 
	C347.767578,358.687897 346.537109,359.985229 344.421326,359.789490 
	C342.865173,357.511292 343.344757,354.798187 343.314484,352.216522 
	C343.107819,334.578735 343.059692,316.938171 342.711761,299.303406 
	C342.590149,293.139832 339.990082,291.918060 334.773010,295.125244 
	C310.513336,310.038879 286.290863,325.013092 262.005615,339.884949 
	C258.687714,341.916718 257.176239,344.455231 257.193298,348.437134 
	C257.326080,379.426361 257.353119,410.416412 257.268311,441.405792 
	C257.258575,444.963013 258.593506,447.337372 261.224396,449.492035 
	C281.849091,466.383362 300.997925,484.958710 321.289551,502.229858 
	C327.492218,507.509277 330.654694,513.601135 330.481232,522.161865 
	C330.066223,542.641357 330.521606,563.138428 330.602264,583.628418 
	C330.604004,584.073669 330.324615,584.519897 330.180176,584.954285 
	C328.278625,585.424377 327.361694,584.048096 326.281677,583.101868 
	C287.820862,549.406067 248.622055,516.575378 209.531509,483.619049 
	C206.045166,480.679810 204.586227,477.553833 204.599930,472.928711 
	C204.751877,421.614777 204.784119,370.299988 204.590195,318.986359 
	C204.567276,312.919464 206.557846,308.994537 211.691010,305.897827 
	C223.237167,298.932343 234.570679,291.614380 246.287140,284.229187 
z"/>
<path fill="#000000" opacity="1.000000" stroke="none" 
	d="
M838.338135,515.975464 
	C839.707031,524.205811 836.706909,529.510132 830.275085,534.089294 
	C822.406250,539.691528 816.266968,547.343262 809.716370,554.439636 
	C805.210083,559.321472 803.749451,565.572327 802.742249,571.811279 
	C799.111084,594.302551 794.486450,616.592224 789.670349,638.849548 
	C788.263611,645.351013 787.085999,651.902527 785.838440,658.437805 
	C785.137756,662.108398 783.332703,663.866394 779.265808,663.348206 
	C774.813110,662.780762 770.261292,662.738159 765.821533,663.628113 
	C762.485474,664.296814 761.572327,662.764099 761.774414,659.866760 
	C762.872986,644.116699 763.471130,628.338379 766.100769,612.707214 
	C768.830750,596.479553 771.031006,580.162354 773.423096,563.878479 
	C774.037598,559.695618 772.683289,555.857788 770.395569,552.536438 
	C763.416077,542.403503 760.710938,531.435852 761.480652,519.069580 
	C762.244629,506.795654 761.838135,494.433441 761.058777,482.120636 
	C760.937988,480.212219 760.443054,478.103394 762.122314,476.355377 
	C764.767029,476.561096 765.430908,478.902130 766.440186,480.632141 
	C774.157349,493.859833 781.819397,507.120300 789.399658,520.426941 
	C792.761292,526.328064 794.130493,526.455811 798.719788,521.370605 
	C803.402527,516.181702 808.301880,511.188019 813.116577,506.118469 
	C815.007874,504.127045 817.284058,502.751221 820.020752,502.386078 
	C824.629639,501.771149 829.253174,501.263184 833.874939,500.749664 
	C836.998474,500.402527 838.526794,501.672485 838.378723,504.988739 
	C838.222839,508.480286 838.340942,511.984009 838.338135,515.975464 
z"/>
</svg>